<?xml version="1.0" standalone="no"?>
<!DOCTYPE svg PUBLIC "-//W3C//DTD SVG 20010904//EN"
 "http://www.w3.org/TR/2001/REC-SVG-20010904/DTD/svg10.dtd">
<svg version="1.0" xmlns="http://www.w3.org/2000/svg"
 width="5001.000000pt" height="5001.000000pt" viewBox="0 0 5001.000000 5001.000000"
 preserveAspectRatio="xMidYMid meet">

<g transform="translate(0.000000,5001.000000) scale(0.100000,-0.100000)"
fill="#000000" stroke="none">
<path d="M0 25005 l0 -25005 25005 0 25005 0 0 25005 0 25005 -25005 0 -25005
0 0 -25005z m25375 12047 c49 -8 48 -8 -43 -15 -483 -39 -1142 -164 -1698
-322 -1465 -415 -2816 -1207 -3889 -2280 -1269 -1269 -2119 -2919 -2404 -4665
-100 -612 -126 -1123 -101 -1946 7 -228 10 -418 7 -421 -3 -3 -264 -14 -579
-24 -797 -25 -992 -38 -1338 -90 -384 -58 -856 -178 -1234 -316 -1321 -478
-2480 -1422 -3208 -2608 -254 -414 -489 -921 -631 -1360 -67 -208 -106 -351
-151 -560 -300 -1384 -128 -2812 485 -4045 135 -272 236 -446 394 -685 242
-367 450 -621 764 -936 503 -502 981 -848 1602 -1159 734 -368 1396 -555 2254
-637 165 -15 420 -17 3040 -18 1573 0 3013 -4 3200 -8 187 -4 648 -12 1025
-17 958 -14 2777 -53 3025 -65 128 -6 130 -11 -35 90 -58 36 -129 79 -158 97
-107 66 -620 407 -757 503 -188 132 -529 386 -728 542 -140 111 -583 475 -597
492 -3 4 -41 37 -85 75 -117 101 -264 235 -484 440 -147 138 -610 604 -763
768 -1529 1645 -2711 3508 -3536 5573 -674 1687 -1087 3465 -1227 5285 -8 107
-14 215 -14 240 1 25 8 -29 15 -120 158 -1909 630 -3686 1432 -5395 59 -125
283 -571 331 -659 16 -28 68 -123 116 -211 903 -1645 2171 -3186 3632 -4412
1011 -849 2154 -1596 3290 -2150 120 -59 221 -111 224 -116 3 -5 9 -8 13 -7
17 5 115 -43 109 -53 -4 -6 0 -8 10 -4 16 6 17 -92 17 -1397 l0 -1403 -172 -7
c-358 -13 -1786 -49 -2683 -66 -1638 -31 -2152 -35 -5095 -35 -3337 1 -3183
-1 -3687 60 -2009 246 -3815 1215 -5141 2758 -663 771 -1180 1685 -1503 2657
-273 823 -409 1656 -409 2515 0 1938 687 3776 1951 5220 253 289 645 669 941
912 802 659 1781 1175 2778 1463 620 179 1201 272 1886 302 l271 12 17 135
c160 1300 592 2559 1259 3670 1096 1826 2809 3229 4793 3926 762 268 1594 436
2404 485 165 10 989 4 1065 -8z m-7888 -7484 c-3 -8 -6 -5 -6 6 -1 11 2 17 5
13 3 -3 4 -12 1 -19z m0 -80 c-3 -7 -5 -2 -5 12 0 14 2 19 5 13 2 -7 2 -19 0
-25z m10 -230 c-2 -18 -4 -4 -4 32 0 36 2 50 4 33 2 -18 2 -48 0 -65z m10
-185 c-2 -21 -4 -6 -4 32 0 39 2 55 4 38 2 -18 2 -50 0 -70z m17772 -1114
c123 -7 199 -16 203 -23 4 -6 8 -460 8 -1008 0 -548 3 -1003 6 -1012 3 -9 11
-16 16 -16 7 0 6 5 -1 13 -15 18 -21 2027 -6 2027 7 0 9 -336 7 -992 -1 -546
0 -1003 3 -1016 3 -13 10 -20 15 -17 6 3 10 2 10 -3 0 -6 -7 -12 -15 -16 -30
-11 -15 -25 17 -15 24 6 29 6 20 -3 -6 -6 -31 -12 -54 -14 -798 -40 -1486
-177 -2178 -431 -1515 -557 -2782 -1605 -3602 -2983 -95 -160 -226 -402 -282
-522 -103 -219 -122 -262 -193 -438 -505 -1248 -637 -2636 -374 -3946 20 -101
33 -180 29 -176 -19 19 -199 345 -277 500 -428 856 -668 1740 -732 2696 -15
223 -6 880 14 1076 60 570 159 1044 322 1535 495 1497 1475 2776 2785 3637
1265 832 2753 1232 4259 1147z m291 -2049 c0 -5 -5 -10 -11 -10 -5 0 -7 5 -4
10 3 6 8 10 11 10 2 0 4 -4 4 -10z m-8834 -10092 c-3 -13 -3 -17 0 -11 4 9 11
10 25 3 12 -7 19 -7 19 -1 0 6 7 8 15 5 8 -3 13 -11 12 -17 -1 -6 3 -11 10
-12 6 0 15 -4 20 -9 4 -5 3 -6 -4 -2 -6 3 -14 2 -17 -3 -3 -5 -6 -619 -6
-1365 l-1 -1356 -44 0 -45 0 0 1365 c0 1055 3 1365 12 1365 9 0 9 3 0 12 -15
15 -16 48 -1 48 6 0 8 -10 5 -22z m198 -83 c10 -8 24 -11 30 -8 6 4 5 -1 -3
-10 -15 -18 -26 -23 -16 -7 3 6 3 10 -2 11 -4 0 -16 2 -26 4 -12 2 -17 -1 -14
-9 3 -7 0 -13 -7 -13 -6 0 -12 8 -12 18 0 10 4 15 8 13 4 -3 8 0 8 5 0 15 11
13 34 -4z m-107 -2627 c-3 -8 -6 -5 -6 6 -1 11 2 17 5 13 3 -3 4 -12 1 -19z
m78 12 c4 -6 3 -10 -2 -9 -4 1 -10 0 -13 -1 -19 -7 -47 -5 -44 5 6 14 51 18
59 5z m61 -12 c1 -10 -3 -16 -8 -15 -6 1 -13 -4 -16 -12 -3 -10 0 -12 12 -8 9
4 15 3 12 -2 -3 -5 -17 -8 -32 -8 -16 0 -21 2 -14 7 7 4 10 15 7 23 -4 11 -1
14 7 11 8 -3 17 0 22 7 4 7 3 10 -4 5 -6 -3 -14 -1 -17 5 -5 7 -1 10 10 7 10
-1 19 -11 21 -20z m-76 -32 c0 -3 -4 -8 -10 -11 -5 -3 -10 -1 -10 4 0 6 5 11
10 11 6 0 10 -2 10 -4z"/>
<path d="M26575 15890 c3 -5 8 -10 11 -10 2 0 4 5 4 10 0 6 -5 10 -11 10 -5 0
-7 -4 -4 -10z"/>
<path d="M35470 25889 c0 -5 5 -7 10 -4 6 3 10 8 10 11 0 2 -4 4 -10 4 -5 0
-10 -5 -10 -11z"/>
</g>
</svg>
